<svg xmlns="http://www.w3.org/2000/svg" viewBox="0 0 300 300" width="300" height="300">
  <rect width="300" height="300" rx="28" fill="#042C53"/>
  <circle cx="40" cy="40" r="1.5" fill="#185FA5" opacity="0.5"/>
  <circle cx="260" cy="40" r="1.5" fill="#185FA5" opacity="0.5"/>
  <circle cx="40" cy="260" r="1.5" fill="#185FA5" opacity="0.5"/>
  <circle cx="260" cy="260" r="1.5" fill="#185FA5" opacity="0.5"/>
  <circle cx="150" cy="40" r="1.5" fill="#185FA5" opacity="0.3"/>
  <circle cx="40" cy="150" r="1.5" fill="#185FA5" opacity="0.3"/>
  <circle cx="260" cy="150" r="1.5" fill="#185FA5" opacity="0.3"/>
  <line x1="62" y1="173" x2="238" y2="151" stroke="#1D9E75" stroke-width="5" stroke-linecap="round"/>
  <polygon points="150,162 138,192 162,192" fill="#0F6E56" stroke="#1D9E75" stroke-width="1"/>
  <rect x="128" y="191" width="44" height="7" rx="3" fill="#0F6E56"/>
  <rect x="72" y="155" width="8" height="24" rx="2" fill="#85B7EB"/>
  <rect x="62" y="159" width="28" height="8" rx="3" fill="#378ADD"/>
  <rect x="64" y="168" width="24" height="7" rx="3" fill="#185FA5"/>
  <text x="76" y="163" text-anchor="middle" font-family="monospace" font-size="7" font-weight="bold" fill="#E6F1FB">W</text>
  <circle cx="76" cy="138" r="13" fill="none" stroke="#1D9E75" stroke-width="1.5"/>
  <text x="76" y="143" text-anchor="middle" font-family="serif" font-size="14" fill="#5DCAA5">θ</text>
  <circle cx="55" cy="125" r="3.5" fill="#0F6E56" stroke="#1D9E75" stroke-width="1"/>
  <circle cx="55" cy="135" r="3.5" fill="#0F6E56" stroke="#1D9E75" stroke-width="1"/>
  <circle cx="67" cy="120" r="3.5" fill="#0F6E56" stroke="#1D9E75" stroke-width="1"/>
  <circle cx="67" cy="130" r="3.5" fill="#0F6E56" stroke="#1D9E75" stroke-width="1"/>
  <circle cx="67" cy="140" r="3.5" fill="#0F6E56" stroke="#1D9E75" stroke-width="1"/>
  <line x1="55" y1="125" x2="67" y2="120" stroke="#1D9E75" stroke-width="0.8" opacity="0.7"/>
  <line x1="55" y1="125" x2="67" y2="130" stroke="#1D9E75" stroke-width="0.8" opacity="0.7"/>
  <line x1="55" y1="125" x2="67" y2="140" stroke="#1D9E75" stroke-width="0.8" opacity="0.7"/>
  <line x1="55" y1="135" x2="67" y2="120" stroke="#1D9E75" stroke-width="0.8" opacity="0.7"/>
  <line x1="55" y1="135" x2="67" y2="130" stroke="#1D9E75" stroke-width="0.8" opacity="0.7"/>
  <line x1="55" y1="135" x2="67" y2="140" stroke="#1D9E75" stroke-width="0.8" opacity="0.7"/>
  <circle cx="226" cy="120" r="10" fill="none" stroke="#5DCAA5" stroke-width="1.8"/>
  <line x1="226" y1="130" x2="226" y2="147" stroke="#5DCAA5" stroke-width="2" stroke-linecap="round"/>
  <line x1="226" y1="135" x2="215" y2="142" stroke="#5DCAA5" stroke-width="1.8" stroke-linecap="round"/>
  <line x1="226" y1="135" x2="237" y2="142" stroke="#5DCAA5" stroke-width="1.8" stroke-linecap="round"/>
  <line x1="226" y1="147" x2="218" y2="155" stroke="#5DCAA5" stroke-width="1.8" stroke-linecap="round"/>
  <line x1="226" y1="147" x2="234" y2="155" stroke="#5DCAA5" stroke-width="1.8" stroke-linecap="round"/>
  <rect x="238" y="140" width="10" height="11" rx="2" fill="none" stroke="#9FE1CB" stroke-width="1.2"/>
  <line x1="248" y1="143" x2="252" y2="143" stroke="#9FE1CB" stroke-width="1.2" stroke-linecap="round"/>
  <line x1="248" y1="147" x2="252" y2="147" stroke="#9FE1CB" stroke-width="1.2" stroke-linecap="round"/>
  <path d="M241 139 Q242 136 241 133" fill="none" stroke="#9FE1CB" stroke-width="0.9" opacity="0.6"/>
  <path d="M245 139 Q246 135 245 132" fill="none" stroke="#9FE1CB" stroke-width="0.9" opacity="0.6"/>
  <line x1="40" y1="212" x2="260" y2="212" stroke="#085041" stroke-width="0.8"/>
  <text x="150" y="233" text-anchor="middle" font-family="sans-serif" font-size="22" font-weight="bold" fill="#E1F5EE" letter-spacing="0.5">Weights</text>
  <text x="150" y="251" text-anchor="middle" font-family="sans-serif" font-size="13" fill="#5DCAA5" letter-spacing="1">&amp; Real Life</text>
  <text x="150" y="272" text-anchor="middle" font-family="sans-serif" font-size="9" fill="#0F6E56" letter-spacing="0.5">by Nikhilesh Narkhede</text>
</svg>
